<?xml version="1.0" encoding="UTF-8"?>
<svg xmlns="http://www.w3.org/2000/svg" xmlns:xlink="http://www.w3.org/1999/xlink" width="2501" height="2501" viewBox="0 0 2501 2501">
<path fill-rule="nonzero" fill="#8293f6" fill-opacity="1" d="M 1268.320312 1349.648438 L 1268.320312 1923.027344 C 1268.320312 1932.683594 1260.488281 1940.511719 1250.839844 1940.511719 C 1245.121094 1940.511719 1240.039062 1937.753906 1236.851562 1933.503906 C 1183.410156 1872.210938 1118.179688 1839.257812 1046.390625 1821.625 C 972.945312 1803.589844 891.757812 1801.359375 809.015625 1801.359375 L 413.304688 1801.359375 C 403.652344 1801.359375 395.824219 1793.53125 395.824219 1783.878906 L 395.824219 763.898438 C 395.824219 754.25 403.652344 746.421875 413.304688 746.421875 L 809.015625 746.421875 C 893.828125 746.421875 977.3125 748.769531 1054.710938 767.78125 C 1133.398438 787.101562 1205.03125 823.511719 1264.019531 891.648438 C 1266.878906 894.949219 1268.269531 899.011719 1268.261719 903.050781 Z M 1233.359375 1692.136719 L 1233.359375 909.589844 C 1180.589844 850.808594 1116.621094 818.898438 1046.390625 801.648438 C 972.945312 783.621094 891.757812 781.390625 809.015625 781.390625 L 430.789062 781.390625 L 430.789062 1766.394531 L 809.015625 1766.394531 C 893.828125 1766.394531 977.3125 1768.746094 1054.710938 1787.753906 C 1120.230469 1803.847656 1180.851562 1831.785156 1233.359375 1880.007812 L 1233.359375 1692.136719 "/>
<path fill-rule="nonzero" fill="#8293f6" fill-opacity="1" d="M 520.316406 763.898438 L 520.316406 670.601562 C 520.316406 660.941406 528.148438 653.121094 537.800781 653.121094 L 874.691406 653.121094 C 948.285156 653.121094 1020.871094 661.03125 1088.238281 695.460938 C 1155.71875 729.949219 1216.859375 790.570312 1266.621094 895.609375 C 1270.71875 904.320312 1266.988281 914.730469 1258.28125 918.828125 C 1250.828125 922.339844 1242.128906 920.121094 1237.199219 913.941406 C 1183.699219 852.371094 1118.339844 819.320312 1046.390625 801.648438 C 972.945312 783.621094 891.757812 781.390625 809.015625 781.390625 L 537.800781 781.390625 C 528.148438 781.390625 520.316406 773.558594 520.316406 763.898438 Z M 555.28125 688.078125 L 555.28125 746.421875 L 809.015625 746.421875 C 893.828125 746.421875 977.3125 748.769531 1054.710938 767.78125 C 1099.511719 778.78125 1142.019531 795.328125 1181.21875 820.109375 C 1147.828125 776.03125 1111.191406 746.28125 1072.398438 726.460938 C 1011.339844 695.261719 943.738281 688.078125 874.691406 688.078125 L 555.28125 688.078125 "/>
<path fill-rule="nonzero" fill="#8293f6" fill-opacity="1" d="M 644.8125 670.601562 L 644.8125 577.289062 C 644.8125 567.640625 652.640625 559.808594 662.292969 559.808594 L 878.28125 559.808594 C 982.21875 559.808594 1072.441406 587.988281 1141.011719 647.949219 C 1204.980469 703.878906 1249.511719 787.050781 1268.039062 900.25 C 1269.589844 909.738281 1263.140625 918.710938 1253.640625 920.261719 C 1245.800781 921.539062 1238.300781 917.351562 1235.070312 910.5 C 1188.988281 813.25 1133.351562 757.609375 1072.398438 726.460938 C 1011.339844 695.261719 943.738281 688.078125 874.691406 688.078125 L 662.292969 688.078125 C 652.640625 688.078125 644.8125 680.25 644.8125 670.601562 Z M 679.773438 594.769531 L 679.773438 653.121094 L 874.691406 653.121094 C 948.285156 653.121094 1020.871094 661.03125 1088.238281 695.460938 C 1127.679688 715.621094 1164.96875 744.71875 1199.070312 786.398438 C 1178.46875 740.308594 1151.101562 703.058594 1118.058594 674.171875 C 1056.289062 620.160156 973.914062 594.769531 878.28125 594.769531 L 679.773438 594.769531 "/>
<path fill-rule="nonzero" fill="#8293f6" fill-opacity="1" d="M 1268.320312 1349.648438 L 1268.320312 1880.007812 C 1320.820312 1831.785156 1381.449219 1803.835938 1446.96875 1787.753906 C 1524.371094 1768.746094 1607.851562 1766.394531 1692.660156 1766.394531 L 2070.890625 1766.394531 L 2070.890625 781.390625 L 1692.660156 781.390625 C 1609.921875 781.390625 1528.738281 783.621094 1455.289062 801.648438 C 1385.050781 818.910156 1321.078125 850.808594 1268.320312 909.589844 Z M 1233.359375 1692.136719 L 1233.359375 903.050781 C 1233.410156 899.011719 1234.808594 894.949219 1237.660156 891.648438 C 1296.628906 823.519531 1368.28125 787.101562 1446.96875 767.78125 C 1524.371094 748.769531 1607.851562 746.421875 1692.660156 746.421875 L 2088.371094 746.421875 C 2098.03125 746.421875 2105.859375 754.25 2105.859375 763.898438 L 2105.859375 1783.878906 C 2105.859375 1793.53125 2098.03125 1801.359375 2088.371094 1801.359375 L 1692.660156 1801.359375 C 1609.921875 1801.359375 1528.738281 1803.589844 1455.289062 1821.625 C 1383.488281 1839.265625 1318.261719 1872.210938 1264.828125 1933.503906 C 1261.640625 1937.753906 1256.558594 1940.511719 1250.839844 1940.511719 C 1241.191406 1940.511719 1233.359375 1932.683594 1233.359375 1923.027344 L 1233.359375 1692.136719 "/>
<path fill-rule="nonzero" fill="#8293f6" fill-opacity="1" d="M 1946.398438 746.421875 L 1946.398438 688.078125 L 1626.988281 688.078125 C 1557.929688 688.078125 1490.328125 695.25 1429.28125 726.460938 C 1390.480469 746.28125 1353.839844 776.03125 1320.449219 820.109375 C 1359.648438 795.328125 1402.160156 778.78125 1446.96875 767.78125 C 1524.371094 748.769531 1607.851562 746.421875 1692.660156 746.421875 Z M 1981.359375 670.601562 L 1981.359375 763.898438 C 1981.359375 773.558594 1973.53125 781.390625 1963.878906 781.390625 L 1692.660156 781.390625 C 1609.921875 781.390625 1528.738281 783.621094 1455.289062 801.648438 C 1383.328125 819.328125 1317.96875 852.371094 1264.480469 913.941406 C 1259.550781 920.121094 1250.859375 922.339844 1243.398438 918.828125 C 1234.691406 914.730469 1230.960938 904.320312 1235.058594 895.609375 C 1284.820312 790.570312 1345.949219 729.949219 1413.441406 695.460938 C 1480.808594 661.03125 1553.378906 653.121094 1626.988281 653.121094 L 1963.878906 653.121094 C 1973.53125 653.121094 1981.359375 660.941406 1981.359375 670.601562 "/>
<path fill-rule="nonzero" fill="#8293f6" fill-opacity="1" d="M 1821.898438 653.121094 L 1821.898438 594.769531 L 1623.398438 594.769531 C 1527.769531 594.769531 1445.390625 620.160156 1383.621094 674.171875 C 1350.578125 703.058594 1323.21875 740.300781 1302.609375 786.390625 C 1336.710938 744.71875 1373.988281 715.621094 1413.441406 695.460938 C 1480.808594 661.03125 1553.378906 653.121094 1626.988281 653.121094 Z M 1856.871094 577.289062 L 1856.871094 670.601562 C 1856.871094 680.25 1849.039062 688.078125 1839.390625 688.078125 L 1626.988281 688.078125 C 1557.929688 688.078125 1490.328125 695.25 1429.28125 726.460938 C 1368.320312 757.609375 1312.679688 813.25 1266.621094 910.5 C 1263.378906 917.351562 1255.878906 921.539062 1248.039062 920.261719 C 1238.539062 918.710938 1232.089844 909.738281 1233.640625 900.25 C 1252.171875 787.050781 1296.710938 703.878906 1360.671875 647.949219 C 1429.238281 587.988281 1519.460938 559.808594 1623.398438 559.808594 L 1839.390625 559.808594 C 1849.039062 559.808594 1856.871094 567.640625 1856.871094 577.289062 "/>
<path fill-rule="nonzero" fill="#8293f6" fill-opacity="1" d="M 1699.488281 1040.71875 L 1639.730469 1040.71875 L 1639.730469 1164.238281 C 1639.730469 1173.890625 1631.898438 1181.71875 1622.25 1181.71875 L 1474.679688 1181.71875 L 1474.679688 1241.480469 L 1622.25 1241.480469 C 1631.898438 1241.480469 1639.730469 1249.308594 1639.730469 1258.96875 L 1639.730469 1562.878906 L 1699.488281 1562.878906 L 1699.488281 1258.96875 C 1699.488281 1249.308594 1707.320312 1241.480469 1716.96875 1241.480469 L 1864.539062 1241.480469 L 1864.539062 1181.71875 L 1716.96875 1181.71875 C 1707.320312 1181.71875 1699.488281 1173.890625 1699.488281 1164.238281 Z M 1622.25 1005.761719 L 1716.96875 1005.761719 C 1726.628906 1005.761719 1734.460938 1013.578125 1734.460938 1023.238281 L 1734.460938 1146.761719 L 1882.019531 1146.761719 C 1891.671875 1146.761719 1899.5 1154.589844 1899.5 1164.238281 L 1899.5 1258.96875 C 1899.5 1268.621094 1891.671875 1276.449219 1882.019531 1276.449219 L 1734.460938 1276.449219 L 1734.460938 1580.359375 C 1734.460938 1590.011719 1726.628906 1597.839844 1716.96875 1597.839844 L 1622.25 1597.839844 C 1612.601562 1597.839844 1604.769531 1590.011719 1604.769531 1580.359375 L 1604.769531 1276.449219 L 1457.191406 1276.449219 C 1447.539062 1276.449219 1439.710938 1268.621094 1439.710938 1258.96875 L 1439.710938 1164.238281 C 1439.710938 1154.589844 1447.539062 1146.761719 1457.191406 1146.761719 L 1604.769531 1146.761719 L 1604.769531 1023.238281 C 1604.769531 1013.578125 1612.601562 1005.761719 1622.25 1005.761719 "/>
</svg>
